<?xml version="1.0" standalone="no"?>
<!DOCTYPE svg PUBLIC "-//W3C//DTD SVG 20010904//EN"
 "http://www.w3.org/TR/2001/REC-SVG-20010904/DTD/svg10.dtd">
<svg version="1.0" xmlns="http://www.w3.org/2000/svg"
 width="1836.000000pt" height="483.000000pt" viewBox="0 0 1836.000000 483.000000"
 preserveAspectRatio="xMidYMid meet">

<g transform="translate(0.000000,483.000000) scale(0.100000,-0.100000)"
fill="#000000" stroke="none">
<path d="M2500 4749 c-82 -17 -137 -39 -235 -93 -64 -35 -191 -152 -235 -216
-13 -19 -27 -37 -30 -40 -3 -3 -27 -42 -53 -87 -27 -45 -54 -87 -62 -93 -8 -7
-15 -18 -15 -24 0 -6 -20 -41 -45 -78 -25 -37 -45 -70 -45 -73 0 -3 -18 -32
-40 -64 -22 -32 -40 -61 -40 -65 0 -3 -18 -32 -40 -63 -22 -32 -40 -62 -40
-66 0 -5 -17 -34 -39 -65 -21 -32 -47 -71 -57 -89 -10 -17 -45 -73 -77 -125
-32 -51 -63 -102 -70 -113 -7 -11 -29 -45 -49 -77 -21 -31 -38 -60 -38 -63 0
-3 -19 -35 -42 -70 -24 -35 -61 -93 -83 -130 -22 -37 -59 -96 -83 -131 -23
-35 -42 -67 -42 -70 0 -3 -17 -31 -39 -62 -21 -31 -46 -72 -56 -91 -9 -19 -21
-39 -26 -45 -8 -9 -81 -123 -121 -191 -44 -72 -98 -159 -135 -217 -24 -37 -43
-69 -43 -72 0 -3 -18 -32 -40 -63 -22 -32 -40 -61 -40 -64 0 -4 -19 -36 -42
-71 -24 -36 -61 -96 -83 -132 -22 -37 -59 -96 -82 -131 -24 -35 -43 -67 -43
-71 0 -4 -15 -27 -33 -53 -28 -40 -67 -108 -113 -201 -20 -40 -64 -253 -64
-309 0 -28 11 -104 25 -168 68 -324 291 -559 609 -642 79 -21 89 -21 1981 -21
1892 0 1902 0 1981 21 135 35 275 112 370 204 58 57 134 152 134 169 0 8 4 17
9 21 24 14 73 142 96 250 27 127 31 191 16 258 -6 23 -17 76 -27 117 -17 76
-82 217 -138 300 -36 52 -47 70 -78 124 -13 21 -27 46 -33 55 -17 28 -96 152
-134 211 -20 30 -38 60 -40 65 -2 6 -20 35 -40 65 -20 30 -45 71 -56 90 -42
72 -61 104 -107 173 -26 40 -48 77 -48 83 0 6 -7 17 -15 24 -8 6 -35 48 -62
93 -26 45 -50 84 -54 87 -3 3 -14 21 -24 40 -10 19 -35 61 -56 92 -22 31 -39
59 -39 62 0 3 -19 35 -42 70 -24 35 -61 94 -83 131 -22 37 -59 95 -82 130 -24
35 -43 67 -43 70 0 3 -17 31 -38 63 -44 68 -55 85 -82 132 -29 50 -41 69 -77
122 -18 26 -44 68 -58 95 -14 26 -36 63 -48 81 -58 86 -107 164 -107 169 0 3
-18 32 -40 64 -22 32 -40 61 -40 64 0 3 -21 38 -47 78 -25 39 -56 88 -68 107
-175 280 -257 369 -424 454 -102 53 -202 76 -351 82 -101 3 -144 0 -220 -17z
m305 -1906 c47 -24 95 -76 125 -133 7 -14 32 -54 55 -90 23 -36 69 -108 101
-160 31 -52 65 -106 73 -119 9 -13 20 -31 26 -40 5 -9 29 -46 52 -82 24 -37
43 -70 43 -74 0 -3 11 -21 25 -39 14 -18 35 -51 48 -74 12 -22 35 -62 52 -89
40 -66 47 -154 15 -215 -30 -58 -65 -94 -122 -123 l-47 -25 -556 0 -556 0 -47
25 c-57 29 -92 65 -122 123 -30 58 -25 148 14 212 47 79 50 84 88 142 21 32
38 61 38 64 0 3 19 36 43 72 23 37 47 74 52 83 6 9 17 27 26 40 8 13 42 67 73
119 32 52 77 124 101 160 23 36 45 73 48 82 14 39 85 117 127 139 87 45 141
46 225 2z"/>
<path d="M8670 4023 c1 -11 17 -26 43 -38 l42 -20 3 -132 3 -133 -56 0 c-54 0
-55 0 -55 -30 0 -30 1 -30 55 -30 l55 0 0 -272 c0 -150 5 -291 10 -312 5 -22
20 -51 35 -65 23 -23 34 -26 115 -29 75 -3 90 -1 90 11 0 9 -14 17 -35 21 -23
5 -42 17 -57 39 -23 31 -23 38 -26 320 l-3 287 60 0 61 0 0 30 0 30 -60 0 -60
0 0 144 0 144 -31 26 c-27 23 -39 26 -110 26 -69 0 -79 -2 -79 -17z"/>
<path d="M14370 4022 c0 -11 16 -25 43 -37 l42 -20 3 -132 3 -133 -61 0 -60 0
0 -30 0 -30 60 0 60 0 0 -291 c0 -320 4 -345 61 -374 40 -21 189 -21 189 0 0
9 -9 15 -23 15 -30 0 -64 25 -82 60 -12 24 -15 80 -15 310 l0 280 60 0 60 0 0
30 0 30 -60 0 -60 0 0 136 c0 74 -5 144 -10 155 -18 33 -64 49 -140 49 -60 0
-70 -2 -70 -18z"/>
<path d="M7210 4005 c0 -8 5 -15 11 -15 27 0 80 -35 99 -65 17 -28 20 -49 20
-162 0 -127 -1 -130 -26 -152 -48 -42 -85 -161 -50 -161 8 0 17 12 21 28 8 34
32 72 45 72 14 0 13 -485 0 -511 -13 -24 -61 -49 -95 -49 -16 0 -25 -6 -25
-15 0 -13 51 -15 401 -15 l402 0 -6 80 c-6 87 -22 123 -63 142 -33 15 -75 0
-91 -31 -9 -20 -8 -32 4 -63 12 -30 13 -42 4 -51 -8 -8 -65 -13 -169 -15 -126
-3 -161 0 -177 12 -19 14 -20 26 -20 224 0 116 3 213 6 216 3 4 26 -3 50 -14
77 -34 157 -24 211 27 27 26 40 56 53 121 9 45 -20 44 -35 -2 -6 -18 -21 -43
-35 -56 -33 -31 -69 -22 -170 39 l-80 48 -3 161 -2 162 206 0 206 0 -16 -25
c-22 -34 -20 -52 8 -70 17 -11 30 -13 48 -6 38 14 52 39 58 102 l6 59 -398 0
c-347 0 -398 -2 -398 -15z"/>
<path d="M10220 4001 c0 -13 8 -21 23 -23 22 -3 22 -4 25 -197 l2 -194 -48 45
c-77 73 -143 83 -233 38 -50 -26 -114 -101 -134 -158 -26 -73 -32 -239 -10
-317 30 -111 118 -211 214 -243 41 -15 150 -16 185 -2 17 6 26 6 26 0 0 -6 42
-10 100 -10 102 0 122 8 71 30 -16 6 -32 21 -35 33 -3 12 -6 232 -6 489 l0
468 25 16 c14 9 25 23 25 30 0 11 -24 14 -115 14 -107 0 -115 -1 -115 -19z
m-28 -401 c76 -81 78 -90 78 -354 l0 -235 -55 -16 c-45 -14 -65 -14 -109 -5
-62 13 -94 42 -128 115 -20 45 -23 65 -23 205 0 98 5 171 13 197 23 77 87 132
156 133 21 0 39 -11 68 -40z"/>
<path d="M12458 4001 c-227 -75 -360 -291 -345 -561 7 -118 35 -210 88 -289
141 -211 392 -249 558 -83 65 65 77 88 52 101 -15 9 -28 1 -77 -48 -47 -47
-71 -62 -116 -76 -70 -20 -112 -13 -174 27 -107 71 -171 190 -194 361 -25 176
50 390 161 464 33 22 57 28 111 31 126 8 174 -39 104 -102 -30 -28 -36 -40
-36 -75 0 -57 26 -81 89 -81 96 0 150 68 137 174 -14 112 -83 166 -219 172
-62 3 -96 0 -139 -15z"/>
<path d="M15480 4000 c0 -11 7 -20 15 -20 8 0 17 -10 20 -22 3 -13 4 -237 3
-498 l-3 -475 -32 -15 c-18 -8 -33 -18 -33 -22 0 -5 45 -8 100 -8 58 0 100 4
100 10 0 6 9 6 26 0 44 -17 165 -12 211 10 61 27 135 101 166 164 56 113 59
290 8 408 -30 71 -98 134 -165 153 -80 23 -116 13 -187 -53 l-59 -55 2 194 3
194 28 13 c15 7 27 20 27 28 0 11 -21 14 -115 14 -108 0 -115 -1 -115 -20z
m394 -383 c52 -29 83 -90 98 -194 25 -171 -20 -368 -94 -413 -46 -28 -110 -34
-173 -15 l-55 16 0 232 0 232 29 51 c37 65 93 114 129 114 15 0 45 -10 66 -23z"/>
<path d="M16190 4002 c0 -14 9 -22 29 -27 15 -3 38 -15 50 -26 21 -20 21 -23
21 -460 0 -490 0 -487 -65 -510 -19 -7 -35 -19 -35 -26 0 -10 37 -13 170 -13
144 0 170 2 170 15 0 8 -7 15 -15 15 -27 0 -62 22 -78 50 -15 25 -17 77 -17
494 l0 466 -27 17 c-19 13 -52 19 -115 21 -83 4 -88 3 -88 -16z"/>
<path d="M10639 3921 c-26 -27 -30 -37 -25 -64 13 -65 85 -89 131 -42 46 45
22 118 -42 131 -27 5 -37 1 -64 -25z"/>
<path d="M8273 3690 c-142 -29 -220 -164 -164 -285 24 -53 36 -62 181 -143
138 -76 170 -108 170 -172 0 -49 -30 -87 -80 -100 -95 -26 -219 56 -249 163
-8 27 -20 47 -27 47 -11 0 -14 -26 -14 -125 0 -104 2 -125 15 -125 8 0 15 3
15 8 1 30 18 31 88 7 93 -33 170 -33 237 -1 149 70 179 235 61 333 -21 17 -88
55 -149 86 -124 62 -165 97 -173 149 -5 30 -1 41 24 69 29 32 33 34 100 34 74
0 112 -19 112 -55 0 -9 9 -25 20 -35 17 -15 23 -16 50 -5 28 12 31 16 28 54
-3 38 -6 42 -58 68 -62 30 -126 40 -187 28z"/>
<path d="M9070 3685 c0 -9 10 -29 23 -46 21 -30 22 -40 27 -297 5 -251 6 -269
27 -309 31 -57 75 -86 138 -91 68 -6 128 21 199 88 l53 51 11 -44 c7 -24 24
-56 39 -71 25 -26 33 -28 85 -24 43 3 64 10 83 28 30 28 35 76 8 65 -83 -34
-83 -34 -83 315 l0 297 25 11 c14 6 25 18 25 27 0 13 -20 15 -125 15 -117 0
-125 -1 -125 -19 0 -14 8 -21 28 -23 l27 -3 3 -259 c2 -257 2 -260 -20 -284
-86 -92 -213 -100 -253 -17 -22 49 -22 510 1 543 8 12 22 22 30 22 8 0 14 9
14 20 0 19 -7 20 -120 20 -101 0 -120 -2 -120 -15z"/>
<path d="M10540 3671 c0 -26 4 -30 40 -36 25 -4 47 -16 60 -32 19 -24 20 -41
20 -272 0 -137 -5 -262 -10 -283 -6 -20 -24 -48 -40 -62 -17 -13 -30 -29 -30
-35 0 -7 54 -11 160 -11 136 0 160 2 160 15 0 8 -9 15 -20 15 -11 0 -34 13
-52 29 l-33 29 -5 322 c-5 304 -6 322 -24 336 -14 10 -50 14 -123 14 l-103 0
0 -29z"/>
<path d="M11233 3690 c-118 -24 -204 -110 -245 -243 -42 -139 -12 -294 77
-403 135 -165 411 -126 504 71 85 180 58 371 -68 494 -70 68 -175 100 -268 81z
m104 -70 c71 -43 124 -150 143 -291 28 -205 -29 -329 -151 -329 -86 0 -159 77
-201 214 -33 104 -33 282 0 344 13 23 37 52 55 62 42 26 112 26 154 0z"/>
<path d="M13163 3690 c-118 -24 -204 -110 -245 -243 -29 -96 -23 -218 15 -301
41 -89 88 -140 162 -177 58 -28 71 -31 138 -28 193 10 312 158 312 390 0 90
-2 99 -38 171 -24 50 -53 91 -83 117 -67 59 -175 88 -261 71z m104 -70 c158
-96 208 -516 71 -600 -46 -28 -115 -27 -159 3 -88 58 -143 201 -144 367 0 130
19 188 73 225 46 31 113 33 159 5z"/>
<path d="M13650 3680 c0 -13 9 -22 25 -26 14 -3 30 -14 35 -24 13 -24 13 -554
0 -599 -11 -40 -35 -60 -72 -61 -18 0 -28 -5 -28 -15 0 -13 23 -15 150 -15 99
0 150 4 150 11 0 6 -13 22 -30 36 l-30 25 0 247 0 247 28 25 c42 39 73 55 126
67 42 9 50 8 67 -9 18 -18 19 -37 19 -293 l0 -274 -31 -26 c-17 -14 -35 -26
-40 -26 -5 0 -9 -7 -9 -15 0 -13 23 -15 145 -15 122 0 145 2 145 15 0 8 -7 15
-15 15 -9 0 -27 11 -40 25 l-25 24 0 286 c0 333 -2 344 -75 376 -32 14 -55 18
-80 13 -38 -7 -112 -50 -175 -102 l-40 -34 0 30 c0 16 9 41 20 55 41 52 32 57
-100 57 -113 0 -120 -1 -120 -20z"/>
<path d="M14963 3690 c-65 -14 -112 -40 -128 -71 -18 -34 -19 -91 -3 -107 29
-29 97 2 82 37 -16 39 -14 51 13 81 24 26 39 33 79 37 43 4 54 2 80 -20 38
-32 54 -84 54 -177 0 -63 -2 -71 -16 -66 -88 34 -187 32 -262 -6 -65 -32 -94
-92 -100 -204 -4 -72 -1 -89 21 -136 28 -64 65 -93 135 -109 64 -15 110 -6
172 36 l50 34 14 -28 c25 -47 83 -63 135 -37 33 18 81 87 81 118 0 21 -1 21
-29 -6 -34 -33 -56 -30 -71 9 -6 15 -10 124 -10 243 0 220 -8 281 -38 316 -45
50 -165 76 -259 56z m155 -329 c21 -11 22 -18 22 -150 l0 -139 -46 -22 c-25
-13 -65 -25 -88 -27 -36 -4 -46 -1 -73 24 -32 30 -53 85 -53 140 0 66 22 137
52 166 28 28 32 29 96 25 37 -3 78 -10 90 -17z"/>
<path d="M16807 3673 c-61 -21 -141 -91 -171 -152 -47 -92 -59 -235 -31 -346
46 -175 196 -269 360 -224 75 20 158 106 133 136 -8 10 -14 8 -29 -11 -43 -55
-142 -79 -214 -52 -61 24 -120 91 -140 161 -9 31 -14 59 -11 62 4 4 367 52
399 53 4 0 7 46 7 103 0 92 -3 108 -29 162 -32 68 -51 88 -104 110 -46 19
-108 18 -170 -2z m107 -34 c50 -39 69 -94 70 -196 0 -50 -2 -95 -6 -98 -5 -5
-239 -44 -270 -45 -14 0 -8 154 7 213 19 73 39 103 84 127 47 25 82 25 115 -1z"/>
<path d="M6050 2015 c0 -11 11 -15 38 -15 52 0 98 -30 106 -70 3 -18 6 -211 6
-430 0 -219 -3 -412 -6 -430 -8 -40 -54 -70 -106 -70 -27 0 -38 -4 -38 -15 0
-13 40 -15 298 -15 402 0 469 12 561 96 56 50 83 105 89 181 4 54 1 70 -23
119 -33 67 -86 105 -190 135 -38 11 -76 23 -84 25 -9 3 8 18 42 40 82 51 102
89 102 194 0 150 -57 221 -206 254 -98 23 -589 23 -589 1z m554 -69 c93 -54
143 -158 116 -242 -14 -47 -75 -140 -97 -148 -33 -13 -125 -18 -197 -11 l-76
7 0 204 c0 228 -8 204 70 218 58 10 140 -2 184 -28z m46 -481 c40 -12 67 -30
100 -64 111 -113 86 -268 -55 -344 -35 -19 -56 -22 -175 -22 -74 0 -143 3
-152 7 -16 7 -18 27 -18 222 0 214 0 215 23 220 44 9 223 -3 277 -19z"/>
<path d="M16710 2015 c0 -9 11 -20 24 -24 13 -5 26 -17 30 -26 8 -21 8 -210
-1 -298 l-6 -68 -41 39 c-60 59 -99 75 -155 67 -97 -15 -171 -78 -212 -181
-19 -50 -23 -78 -23 -179 0 -102 3 -129 23 -177 29 -75 110 -164 176 -195 54
-25 161 -32 209 -13 16 6 27 6 31 0 7 -12 195 -14 195 -2 0 4 -14 15 -30 24
l-30 17 0 490 c0 480 0 491 20 501 11 6 20 17 20 25 0 12 -21 15 -115 15 -96
0 -115 -2 -115 -15z m-45 -387 c15 -12 45 -49 66 -81 l39 -60 0 -229 0 -229
-37 -16 c-48 -21 -140 -20 -182 1 -70 37 -111 154 -111 321 0 162 41 269 114
301 45 19 79 17 111 -8z"/>
<path d="M12810 2017 c0 -5 -190 -520 -193 -523 -1 -1 -24 2 -51 7 -93 17
-150 -16 -163 -96 -6 -39 3 -85 17 -85 6 0 10 13 10 28 0 51 20 65 83 60 31
-3 59 -7 62 -10 9 -9 -97 -302 -122 -335 -13 -18 -37 -40 -53 -50 -61 -35 -40
-43 115 -43 122 0 145 2 145 15 0 8 -8 15 -18 15 -34 0 -62 29 -62 65 0 27 41
152 95 286 5 14 13 15 47 8 79 -18 198 -71 255 -113 50 -37 61 -50 76 -98 9
-30 17 -63 17 -74 -1 -40 -47 -74 -99 -74 -21 0 -31 -5 -31 -15 0 -13 26 -15
170 -15 143 0 170 2 170 15 0 8 -11 17 -24 21 -54 13 -70 48 -247 537 -110
306 -177 477 -186 477 -7 0 -13 -1 -13 -3z m91 -453 c37 -101 63 -184 60 -184
-4 0 -29 11 -57 24 -27 13 -78 34 -114 46 -36 13 -67 25 -68 26 -2 1 20 66 49
143 29 78 55 139 58 135 3 -3 35 -88 72 -190z"/>
<path d="M7833 1950 c-72 -29 -44 -151 34 -150 76 1 106 93 46 140 -28 22 -46
24 -80 10z"/>
<path d="M15343 1950 c-27 -11 -43 -40 -43 -79 0 -36 39 -71 80 -71 65 0 96
98 44 139 -29 23 -46 25 -81 11z"/>
<path d="M7720 1681 c0 -25 5 -30 36 -35 19 -4 44 -16 55 -27 18 -18 19 -35
19 -289 0 -288 -4 -315 -50 -340 -11 -6 -20 -17 -20 -25 0 -13 26 -15 155 -15
127 0 155 3 155 14 0 8 -14 17 -30 21 -62 14 -64 25 -70 378 -5 301 -6 319
-24 333 -14 10 -50 14 -123 14 l-103 0 0 -29z"/>
<path d="M8343 1700 c-109 -22 -183 -107 -183 -210 0 -85 36 -130 158 -196
182 -99 212 -126 212 -187 0 -96 -105 -141 -205 -89 -73 38 -114 89 -130 160
-3 18 -13 32 -21 32 -11 0 -14 -24 -14 -125 0 -104 2 -125 15 -125 8 0 15 3
15 8 1 29 18 31 85 7 115 -40 209 -31 287 28 60 46 81 87 81 157 0 102 -37
142 -218 233 -122 61 -163 97 -171 149 -18 109 182 152 233 51 25 -51 45 -61
77 -40 31 21 35 66 9 93 -44 43 -153 69 -230 54z"/>
<path d="M8925 1700 c-102 -22 -145 -59 -145 -124 0 -47 13 -66 46 -66 46 0
58 29 37 87 -2 6 9 26 24 43 24 27 39 33 81 38 46 4 54 2 81 -25 36 -37 51
-87 51 -177 0 -59 -2 -67 -16 -62 -88 34 -187 32 -262 -6 -65 -32 -94 -92
-100 -204 -4 -72 -1 -89 21 -136 28 -64 65 -93 135 -109 64 -15 110 -6 171 35
l49 33 13 -24 c15 -28 58 -53 91 -53 49 0 128 81 128 131 0 22 -1 22 -29 -5
-34 -33 -56 -30 -71 9 -6 15 -10 124 -10 243 0 220 -8 281 -38 316 -45 49
-166 76 -257 56z m153 -329 c21 -11 22 -18 22 -150 l0 -139 -46 -22 c-25 -13
-65 -25 -88 -27 -36 -4 -46 -1 -73 24 -41 38 -57 99 -49 182 13 120 47 155
146 148 36 -2 76 -9 88 -16z"/>
<path d="M9643 1700 c-23 -5 -55 -15 -70 -24 -43 -22 -102 -91 -132 -155 -24
-51 -26 -67 -26 -176 0 -161 21 -239 80 -300 106 -109 253 -125 355 -38 l30
25 0 -94 c0 -118 -13 -163 -60 -210 -37 -38 -39 -38 -116 -38 -92 0 -146 20
-187 69 -31 38 -35 61 -9 61 45 0 56 50 16 76 -34 23 -72 10 -97 -33 -38 -65
13 -152 120 -204 37 -18 69 -24 140 -27 195 -8 292 59 322 223 7 35 11 203 11
426 0 314 2 368 15 379 8 7 15 21 15 31 0 17 -9 19 -100 19 -97 0 -100 -1
-100 -22 0 -13 7 -32 15 -42 8 -11 15 -36 15 -55 l-1 -36 -17 32 c-28 53 -80
102 -120 113 -41 11 -41 11 -99 0z m139 -87 c16 -15 43 -57 61 -93 32 -64 32
-65 35 -241 l3 -176 -26 -31 c-31 -37 -92 -57 -144 -47 -113 21 -171 134 -171
333 0 159 36 248 113 282 48 22 87 13 129 -27z"/>
<path d="M10323 1700 c-111 -24 -171 -100 -133 -171 13 -23 53 -25 74 -3 19
18 19 20 6 44 -16 29 6 76 45 94 50 24 98 20 134 -10 37 -31 51 -77 51 -173 0
-63 -2 -72 -16 -67 -88 34 -189 31 -263 -6 -64 -33 -93 -92 -99 -204 -4 -72
-1 -89 21 -136 27 -60 61 -90 122 -107 74 -20 122 -10 210 48 19 12 24 10 57
-23 39 -39 71 -45 117 -22 34 18 81 84 81 116 l0 24 -28 -27 c-33 -31 -44 -33
-63 -10 -11 12 -15 76 -19 274 -5 241 -6 259 -26 286 -47 64 -165 96 -271 73z
m155 -329 c21 -11 22 -17 22 -152 l0 -140 -46 -20 c-96 -43 -156 -32 -188 35
-40 84 -27 216 26 269 28 28 32 29 96 25 37 -3 78 -10 90 -17z"/>
<path d="M13548 1700 c-127 -22 -210 -142 -178 -260 16 -59 54 -93 180 -160
57 -30 121 -71 142 -91 33 -31 38 -42 38 -81 0 -89 -74 -135 -167 -104 -75 25
-128 75 -154 146 -36 98 -49 80 -49 -65 0 -108 2 -125 16 -125 9 0 18 9 21 20
7 25 2 25 85 -5 75 -27 154 -32 209 -13 168 57 211 235 83 347 -21 19 -84 56
-139 82 -119 55 -161 88 -174 135 -13 47 0 79 41 104 64 39 188 16 188 -34 0
-58 91 -69 106 -12 8 32 -8 60 -48 84 -29 17 -125 44 -146 41 -4 -1 -28 -5
-54 -9z"/>
<path d="M14179 1697 c-104 -29 -166 -83 -213 -187 -75 -165 -44 -353 79 -476
64 -64 128 -88 223 -82 162 9 273 127 303 319 14 90 3 164 -36 246 -68 137
-223 216 -356 180z m118 -67 c72 -44 124 -155 143 -306 12 -98 0 -200 -29
-247 -48 -78 -160 -91 -227 -26 -81 78 -128 224 -122 379 4 110 24 161 78 198
42 28 112 30 157 2z"/>
<path d="M14900 1701 c-136 -45 -234 -159 -260 -302 -24 -130 9 -263 87 -349
77 -85 172 -117 269 -90 48 14 154 100 154 125 0 24 -25 22 -50 -5 -35 -37
-110 -64 -154 -56 -46 9 -125 63 -153 105 -63 93 -71 265 -19 379 37 80 89
128 149 137 84 13 135 -35 82 -77 -21 -16 -25 -27 -23 -57 4 -47 37 -65 91
-50 50 14 73 50 70 112 -3 58 -21 90 -63 112 -36 18 -144 28 -180 16z"/>
<path d="M15230 1681 c0 -26 5 -30 45 -40 25 -6 49 -19 55 -30 6 -12 10 -120
10 -281 0 -278 -6 -316 -49 -340 -12 -6 -21 -17 -21 -25 0 -13 26 -15 155 -15
127 0 155 3 155 14 0 8 -14 17 -30 21 -62 14 -64 25 -70 378 -5 301 -6 319
-24 333 -14 10 -50 14 -123 14 l-103 0 0 -29z"/>
<path d="M15853 1700 c-93 -20 -143 -64 -143 -126 0 -58 48 -85 84 -48 19 18
19 20 5 46 -26 48 37 108 114 108 77 0 117 -69 117 -200 0 -63 -2 -71 -16 -66
-88 34 -187 32 -262 -6 -65 -32 -94 -92 -100 -204 -4 -72 -1 -89 21 -136 28
-64 65 -93 135 -109 62 -15 106 -7 166 31 55 35 63 36 71 10 7 -23 53 -50 85
-50 52 0 130 79 130 132 0 21 -1 21 -28 -5 -33 -31 -44 -33 -63 -10 -11 12
-15 76 -19 274 -5 241 -6 259 -26 286 -47 64 -165 96 -271 73z m155 -329 c21
-11 22 -18 22 -150 l0 -139 -46 -22 c-25 -13 -65 -25 -88 -27 -37 -5 -46 -1
-74 26 -50 50 -63 120 -41 223 8 34 22 62 41 81 28 28 32 29 96 25 37 -3 78
-10 90 -17z"/>
<path d="M17269 1697 c-138 -39 -222 -144 -249 -312 -29 -176 74 -372 222
-421 67 -22 168 -16 229 14 101 49 169 154 190 293 14 90 3 164 -36 246 -68
137 -223 216 -356 180z m122 -70 c72 -48 122 -159 139 -307 24 -208 -38 -320
-169 -308 -42 4 -59 12 -87 39 -81 77 -128 223 -122 379 4 109 24 161 78 198
45 30 115 30 161 -1z"/>
<path d="M17933 1700 c-115 -23 -183 -102 -183 -210 0 -93 38 -135 196 -218
119 -63 160 -101 169 -158 6 -34 3 -45 -20 -72 -53 -63 -129 -64 -221 -1 -49
34 -70 63 -86 124 -7 25 -18 45 -25 45 -10 0 -13 -29 -13 -125 0 -104 2 -125
15 -125 8 0 15 6 15 14 0 26 15 26 91 -1 133 -46 256 -18 326 73 21 29 28 50
31 99 7 113 -31 155 -236 260 -122 62 -152 92 -152 151 0 74 104 118 194 80
24 -10 35 -22 39 -45 9 -43 47 -60 82 -37 32 21 33 65 2 94 -47 44 -146 67
-224 52z"/>
<path d="M7335 1683 c-150 -54 -222 -189 -213 -398 5 -110 28 -179 82 -243 65
-76 176 -108 286 -82 79 19 165 111 134 143 -3 3 -21 -9 -39 -27 -38 -38 -116
-62 -168 -52 -44 8 -106 49 -139 92 -26 35 -56 129 -44 141 5 5 347 51 394 52
11 1 13 24 10 109 -3 93 -7 114 -31 165 -52 104 -154 142 -272 100z m105 -33
c50 -36 70 -94 70 -202 l0 -96 -27 -6 c-16 -3 -64 -10 -108 -16 -44 -6 -95
-13 -112 -16 l-33 -5 0 89 c0 141 35 228 104 258 44 19 74 17 106 -6z"/>
<path d="M11180 1686 c0 -8 11 -17 25 -20 39 -10 70 -67 203 -375 l122 -279
-35 -94 c-44 -115 -76 -164 -119 -185 -46 -22 -70 -12 -61 26 4 20 1 34 -10
45 -20 20 -19 19 -54 1 -49 -25 -57 -95 -16 -139 29 -31 87 -35 141 -10 39 19
131 115 156 165 10 19 85 204 167 412 82 208 156 389 165 403 10 13 30 27 46
31 17 3 30 12 30 19 0 11 -26 14 -130 14 -109 0 -130 -2 -130 -15 0 -9 9 -15
24 -15 34 0 49 -23 41 -61 -7 -30 -99 -285 -140 -387 l-18 -43 -82 184 c-108
240 -111 251 -91 282 10 16 26 25 41 25 16 0 25 6 25 15 0 13 -23 15 -150 15
-121 0 -150 -3 -150 -14z"/>
</g>
</svg>
